<svg xmlns="http://www.w3.org/2000/svg" viewBox="0 0 1180 560" preserveAspectRatio="xMidYMid slice">
  <defs>
    <linearGradient id="bg" x1="0" y1="0" x2="0" y2="1">
      <stop offset="0" stop-color="#ede9fe"/>
      <stop offset=".55" stop-color="#c4b5fd"/>
      <stop offset="1" stop-color="#a78bfa"/>
    </linearGradient>
  </defs>
  <rect width="1180" height="560" fill="url(#bg)"/>
  <path d="M0 380 C130 290 250 390 410 300 C560 215 720 330 890 230 C1010 160 1105 178 1180 125 L1180 560 L0 560Z" fill="#4c1d95" opacity=".14"/>
  <g opacity=".42">
    <g transform="translate(175 135)">
      <rect x="40" y="120" width="92" height="170" rx="18" fill="#4c1d95"/>
      <path d="M36 122 86 38 136 122Z" fill="#7c3aed"/>
      <rect x="71" y="178" width="30" height="112" rx="12" fill="#ddd6fe"/>
      <circle cx="86" cy="145" r="15" fill="#22d3ee" opacity=".8"/>
    </g>
    <g transform="translate(820 80) scale(1.18)">
      <rect x="40" y="120" width="92" height="170" rx="18" fill="#312e81"/>
      <path d="M36 122 86 38 136 122Z" fill="#8b5cf6"/>
      <rect x="71" y="178" width="30" height="112" rx="12" fill="#ede9fe"/>
      <circle cx="86" cy="145" r="15" fill="#fbbf24" opacity=".85"/>
    </g>
  </g>
  <g fill="#ffffff" opacity=".34">
    <path d="M520 90 l12 28 30 3 -23 19 7 30 -26-16 -26 16 7-30 -23-19 30-3z"/>
    <path d="M650 380 l8 18 20 2 -15 13 5 20 -18-11 -18 11 5-20 -15-13 20-2z"/>
    <circle cx="1040" cy="345" r="5"/><circle cx="82" cy="92" r="5"/>
  </g>
  <path d="M-70 495 C80 400 210 470 365 365 C505 270 650 360 805 265 C970 164 1095 205 1240 96" fill="none" stroke="#ddd6fe" stroke-width="44" opacity=".20"/>
</svg>
