<svg xmlns="http://www.w3.org/2000/svg" viewBox="0 0 1180 540" preserveAspectRatio="xMidYMid slice">
  <defs>
    <linearGradient id="g" x1="0" y1="0" x2="0" y2="1">
      <stop offset="0" stop-color="#b9f5ca"/>
      <stop offset=".58" stop-color="#6ee7a3"/>
      <stop offset="1" stop-color="#30b66d"/>
    </linearGradient>
    <linearGradient id="water" x1="0" y1="0" x2="1" y2="1">
      <stop offset="0" stop-color="#7dd3fc"/>
      <stop offset="1" stop-color="#22d3ee"/>
    </linearGradient>
  </defs>
  <rect width="1180" height="540" fill="url(#g)"/>
  <path d="M0 310 C170 210 260 340 420 255 C580 168 690 300 850 205 C980 130 1065 190 1180 115 L1180 540 L0 540Z" fill="#15803d" opacity=".22"/>
  <path d="M0 385 C160 305 290 420 455 335 C620 250 780 395 955 290 C1065 225 1120 250 1180 230 L1180 540 L0 540Z" fill="#166534" opacity=".28"/>
  <path d="M-60 510 C70 420 125 455 210 395 C315 322 405 388 500 322 C620 238 710 270 800 220 C910 158 1025 174 1240 80" fill="none" stroke="url(#water)" stroke-width="58" opacity=".46"/>
  <path d="M-70 510 C65 420 128 456 210 395 C315 322 405 388 500 322 C620 238 710 270 800 220 C910 158 1025 174 1240 80" fill="none" stroke="#ecfeff" stroke-width="10" opacity=".30"/>
  <g opacity=".48">
    <g transform="translate(80 210)"><path d="M45 0 85 95H5Z" fill="#14532d"/><path d="M45 35 98 145H-8Z" fill="#166534"/><rect x="38" y="128" width="14" height="50" rx="4" fill="#7c2d12"/></g>
    <g transform="translate(210 135) scale(1.15)"><path d="M45 0 85 95H5Z" fill="#14532d"/><path d="M45 35 98 145H-8Z" fill="#15803d"/><rect x="38" y="128" width="14" height="50" rx="4" fill="#7c2d12"/></g>
    <g transform="translate(930 170)"><path d="M45 0 85 95H5Z" fill="#14532d"/><path d="M45 35 98 145H-8Z" fill="#166534"/><rect x="38" y="128" width="14" height="50" rx="4" fill="#7c2d12"/></g>
    <g transform="translate(1040 105) scale(1.2)"><path d="M45 0 85 95H5Z" fill="#14532d"/><path d="M45 35 98 145H-8Z" fill="#15803d"/><rect x="38" y="128" width="14" height="50" rx="4" fill="#7c2d12"/></g>
  </g>
  <g opacity=".28" fill="#f0fdf4">
    <circle cx="355" cy="120" r="6"/><circle cx="387" cy="96" r="4"/><circle cx="720" cy="128" r="5"/><circle cx="825" cy="82" r="4"/><circle cx="1010" cy="312" r="5"/>
  </g>
</svg>
