<svg xmlns="http://www.w3.org/2000/svg" viewBox="0 0 1180 560" preserveAspectRatio="xMidYMid slice">
  <defs>
    <linearGradient id="bg" x1="0" y1="0" x2="0" y2="1">
      <stop offset="0" stop-color="#dbeafe"/>
      <stop offset=".55" stop-color="#93c5fd"/>
      <stop offset="1" stop-color="#67e8f9"/>
    </linearGradient>
  </defs>
  <rect width="1180" height="560" fill="url(#bg)"/>
  <path d="M0 420 C145 320 280 420 430 330 C590 235 700 340 870 245 C1010 168 1090 185 1180 130 L1180 560 L0 560Z" fill="#0e7490" opacity=".12"/>
  <g opacity=".42">
    <g transform="translate(118 190)">
      <rect x="0" y="74" width="150" height="100" rx="18" fill="#eff6ff"/>
      <rect x="28" y="20" width="32" height="120" rx="10" fill="#38bdf8"/>
      <rect x="86" y="0" width="40" height="140" rx="12" fill="#60a5fa"/>
      <rect x="22" y="104" width="108" height="70" fill="#bfdbfe"/>
      <circle cx="75" cy="93" r="22" fill="#06b6d4" opacity=".7"/>
    </g>
    <g transform="translate(815 170) scale(1.1)">
      <rect x="0" y="74" width="150" height="100" rx="18" fill="#f8fafc"/>
      <rect x="28" y="20" width="32" height="120" rx="10" fill="#22d3ee"/>
      <rect x="86" y="0" width="40" height="140" rx="12" fill="#3b82f6"/>
      <rect x="22" y="104" width="108" height="70" fill="#dbeafe"/>
      <circle cx="75" cy="93" r="22" fill="#7c3aed" opacity=".45"/>
    </g>
  </g>
  <g fill="none" stroke="#e0f2fe" stroke-width="7" opacity=".42">
    <path d="M360 95 C430 40 520 48 575 112"/>
    <path d="M540 430 C625 360 745 395 805 315"/>
    <path d="M25 315 C105 260 185 285 240 225"/>
  </g>
  <g fill="#fff" opacity=".50">
    <circle cx="372" cy="160" r="5"/><circle cx="405" cy="190" r="3"/><circle cx="720" cy="102" r="4"/><circle cx="1000" cy="380" r="5"/>
  </g>
</svg>
