<svg xmlns="http://www.w3.org/2000/svg" viewBox="0 0 1180 560" preserveAspectRatio="xMidYMid slice">
  <defs>
    <linearGradient id="bg" x1="0" y1="0" x2="0" y2="1">
      <stop offset="0" stop-color="#fff7bf"/>
      <stop offset=".62" stop-color="#facc6b"/>
      <stop offset="1" stop-color="#f6b24f"/>
    </linearGradient>
  </defs>
  <rect width="1180" height="560" fill="url(#bg)"/>
  <path d="M0 360 C140 270 265 360 390 285 C520 205 660 315 820 235 C955 168 1065 180 1180 135 L1180 560 L0 560Z" fill="#84cc16" opacity=".22"/>
  <path d="M-40 445 C120 390 210 460 360 390 C520 315 660 430 835 355 C990 288 1110 320 1230 260" fill="none" stroke="#60a5fa" stroke-width="52" opacity=".28"/>
  <g opacity=".45">
    <g transform="translate(140 220)">
      <path d="M0 75 58 25 116 75Z" fill="#b45309"/><rect x="14" y="74" width="88" height="72" rx="10" fill="#fff7ed"/><rect x="47" y="98" width="22" height="48" rx="4" fill="#92400e"/>
    </g>
    <g transform="translate(850 190) scale(1.12)">
      <path d="M0 75 58 25 116 75Z" fill="#dc2626"/><rect x="14" y="74" width="88" height="72" rx="10" fill="#e0f2fe"/><rect x="47" y="98" width="22" height="48" rx="4" fill="#075985"/>
    </g>
    <g transform="translate(545 275) scale(.9)">
      <path d="M0 75 58 25 116 75Z" fill="#ca8a04"/><rect x="14" y="74" width="88" height="72" rx="10" fill="#fef3c7"/><rect x="47" y="98" width="22" height="48" rx="4" fill="#92400e"/>
    </g>
  </g>
  <g stroke="#ca8a04" stroke-width="5" opacity=".18">
    <path d="M60 92 H240"/><path d="M740 96 H930"/><path d="M365 470 H555"/><path d="M980 430 H1140"/>
  </g>
  <g fill="#78350f" opacity=".14">
    <circle cx="90" cy="430" r="9"/><circle cx="225" cy="116" r="7"/><circle cx="740" cy="455" r="8"/><circle cx="1050" cy="95" r="8"/>
  </g>
</svg>
