<svg xmlns="http://www.w3.org/2000/svg" viewBox="0 0 1180 560" preserveAspectRatio="xMidYMid slice">
  <defs>
    <linearGradient id="bg" x1="0" y1="0" x2="0" y2="1">
      <stop offset="0" stop-color="#fde68a"/>
      <stop offset=".56" stop-color="#fbbf24"/>
      <stop offset="1" stop-color="#b45309"/>
    </linearGradient>
  </defs>
  <rect width="1180" height="560" fill="url(#bg)"/>
  <path d="M0 405 C145 305 280 410 435 310 C585 214 725 332 890 232 C1018 154 1098 178 1180 118 L1180 560 L0 560Z" fill="#7c2d12" opacity=".18"/>
  <path d="M-60 500 C85 410 175 455 305 380 C450 298 570 345 705 262 C870 160 1038 220 1240 92" fill="none" stroke="#0ea5e9" stroke-width="50" opacity=".22"/>
  <g transform="translate(760 115)" opacity=".48">
    <rect x="0" y="120" width="230" height="165" rx="20" fill="#451a03"/>
    <rect x="32" y="70" width="42" height="90" fill="#78350f"/>
    <rect x="156" y="70" width="42" height="90" fill="#78350f"/>
    <rect x="93" y="35" width="44" height="125" fill="#92400e"/>
    <path d="M32 70 53 25 74 70Z" fill="#f59e0b"/>
    <path d="M156 70 177 25 198 70Z" fill="#f59e0b"/>
    <path d="M93 35 115 -8 137 35Z" fill="#fde68a"/>
    <rect x="91" y="190" width="48" height="95" rx="18" fill="#fef3c7"/>
  </g>
  <g transform="translate(175 260)" opacity=".38">
    <rect x="0" y="70" width="170" height="110" rx="18" fill="#1f2937"/>
    <rect x="35" y="25" width="35" height="70" fill="#374151"/>
    <rect x="102" y="8" width="40" height="88" fill="#4b5563"/>
    <rect x="67" y="120" width="38" height="60" rx="12" fill="#f59e0b"/>
  </g>
  <g fill="#fff7ed" opacity=".42">
    <circle cx="640" cy="100" r="5"/><circle cx="700" cy="145" r="4"/><circle cx="1080" cy="360" r="6"/><circle cx="425" cy="420" r="4"/>
  </g>
</svg>
