<svg xmlns="http://www.w3.org/2000/svg"
  style="position:absolute;width:0;height:0;overflow:hidden" aria-hidden="true">
<defs>

<!-- ── CORE UI ─────────────────────────────────────────────── -->

<symbol id="icon-xp" viewBox="0 0 24 24">
  <!-- Lightning bolt -->
  <path d="M14 2L5.5 13.5H11L10 22L18.5 10H13L14 2Z" fill="currentColor"/>
</symbol>

<symbol id="icon-gem" viewBox="0 0 24 24">
  <!-- Diamond gem with facets -->
  <path d="M12 3L19.5 8.5L12 21L4.5 8.5Z" fill="currentColor"/>
  <path d="M4.5 8.5H19.5" stroke="white" stroke-width="0.8" fill="none" opacity="0.35"/>
  <path d="M12 3L4.5 8.5M12 3L19.5 8.5" stroke="white" stroke-width="0.6" fill="none" opacity="0.25"/>
  <path d="M12 3L9 8H15Z" fill="white" opacity="0.22"/>
</symbol>

<symbol id="icon-streak" viewBox="0 0 24 24">
  <!-- Flame -->
  <path d="M12 2C12 2 17 7.5 17 13C17 17.4 14.8 21 12 21S7 17.4 7 13C7 10 8.5 6.5 8.5 6.5S9.5 10 11 10C10 7 12 2 12 2Z" fill="currentColor"/>
  <path d="M12 9.5C12 9.5 14.5 12.5 14.5 15C14.5 16.9 13.4 18.5 12 18.5S9.5 16.9 9.5 15C9.5 13 11 11.5 11 11.5S11.5 13 12.5 13C12 11 12 9.5 12 9.5Z" fill="white" opacity="0.28"/>
</symbol>

<symbol id="icon-heart" viewBox="0 0 24 24">
  <!-- Heart / lives -->
  <path d="M12 21C12 21 3 14.5 3 9.5C3 6.9 5 5 7.5 5C9.5 5 11 6.5 12 7.5C13 6.5 14.5 5 16.5 5C19 5 21 6.9 21 9.5C21 14.5 12 21 12 21Z" fill="currentColor"/>
  <path d="M7.5 8C6.5 9 6 10.5 6.5 12" stroke="white" stroke-width="1.5" stroke-linecap="round" fill="none" opacity="0.35"/>
</symbol>

<symbol id="icon-bell" viewBox="0 0 24 24">
  <!-- Notification bell -->
  <path d="M12 3C8.5 3 6 6 6 9.5V14L4 16.5H20L18 14V9.5C18 6 15.5 3 12 3Z" fill="currentColor"/>
  <path d="M9.5 16.5A2.5 2.5 0 0014.5 16.5" fill="currentColor" opacity="0.75"/>
  <path d="M9 8C8 9.2 7.5 10.5 7.5 12" stroke="white" stroke-width="1.5" stroke-linecap="round" fill="none" opacity="0.28"/>
</symbol>

<symbol id="icon-avatar" viewBox="0 0 24 24">
  <!-- Hero avatar (person with cape suggestion) -->
  <circle cx="12" cy="8.5" r="4.5" fill="currentColor"/>
  <path d="M5 22C5 18.1 8.1 15 12 15S19 18.1 19 22" fill="currentColor" opacity="0.78"/>
  <path d="M6 21C5 20 4 18 4 16.5S5.5 14.5 7 15.5" fill="currentColor" opacity="0.48"/>
  <path d="M18 21C19 20 20 18 20 16.5S18.5 14.5 17 15.5" fill="currentColor" opacity="0.48"/>
  <path d="M9.5 6.5C9 7.2 8.5 8 8.5 9" stroke="white" stroke-width="1.4" stroke-linecap="round" fill="none" opacity="0.3"/>
</symbol>

<symbol id="icon-brand" viewBox="0 0 24 24">
  <!-- EduQuest shield + lightning mark -->
  <path d="M12 1.5L3 5.5V11C3 16.5 7 21.5 12 23C17 21.5 21 16.5 21 11V5.5Z" fill="currentColor"/>
  <path d="M13.5 6.5L8.5 14H12.5L11.5 18.5L17.5 10.5H13Z" fill="white" opacity="0.85"/>
</symbol>

<symbol id="icon-menu" viewBox="0 0 24 24">
  <!-- Hamburger menu -->
  <line x1="3"  y1="6"  x2="21" y2="6"  stroke="currentColor" stroke-width="2.5" stroke-linecap="round"/>
  <line x1="3"  y1="12" x2="21" y2="12" stroke="currentColor" stroke-width="2.5" stroke-linecap="round"/>
  <line x1="3"  y1="18" x2="21" y2="18" stroke="currentColor" stroke-width="2.5" stroke-linecap="round"/>
</symbol>

<symbol id="icon-close" viewBox="0 0 24 24">
  <!-- Close / X -->
  <path d="M5.5 5.5L18.5 18.5M18.5 5.5L5.5 18.5" stroke="currentColor" stroke-width="2.5" stroke-linecap="round" fill="none"/>
</symbol>

<symbol id="icon-chevron-right" viewBox="0 0 24 24">
  <path d="M9 5L17 12L9 19" stroke="currentColor" stroke-width="2.5" stroke-linecap="round" stroke-linejoin="round" fill="none"/>
</symbol>

<symbol id="icon-chevron-down" viewBox="0 0 24 24">
  <path d="M5 9L12 17L19 9" stroke="currentColor" stroke-width="2.5" stroke-linecap="round" stroke-linejoin="round" fill="none"/>
</symbol>

<!-- ── NAVIGATION ──────────────────────────────────────────── -->

<symbol id="icon-home" viewBox="0 0 24 24">
  <!-- House -->
  <path d="M3 11.5L12 3L21 11.5V21H15V15.5H9V21H3Z" fill="currentColor"/>
  <rect x="10" y="15.5" width="4" height="5.5" rx="1" fill="white" opacity="0.22"/>
  <path d="M3 11.5L12 3" stroke="white" stroke-width="0.8" fill="none" opacity="0.22"/>
</symbol>

<symbol id="icon-map" viewBox="0 0 24 24">
  <!-- Folded map / adventure -->
  <path d="M3 5L9 3L15 6L21 4V19L15 21L9 18L3 20Z" fill="currentColor" opacity="0.85"/>
  <path d="M9 3V18" stroke="white" stroke-width="0.8" fill="none" opacity="0.38"/>
  <path d="M15 6V21" stroke="white" stroke-width="0.8" fill="none" opacity="0.28"/>
  <circle cx="6.5" cy="11" r="1.2" fill="white" opacity="0.55"/>
  <path d="M6.5 11C8 9.5 10 10 11.5 12.5" stroke="white" stroke-width="1" fill="none" opacity="0.42" stroke-linecap="round" stroke-dasharray="1.2 1.2"/>
</symbol>

<symbol id="icon-trophy" viewBox="0 0 24 24">
  <!-- Trophy cup -->
  <path d="M6 3H18V10C18 13.3 15.3 16 12 16S6 13.3 6 10V3Z" fill="currentColor"/>
  <path d="M3 5H6V9A3 3 0 013 6Z" fill="currentColor" opacity="0.65"/>
  <path d="M21 5H18V9A3 3 0 0021 6Z" fill="currentColor" opacity="0.65"/>
  <rect x="10.5" y="16" width="3" height="3.5" fill="currentColor" opacity="0.82"/>
  <rect x="7.5" y="19.5" width="9" height="2" rx="1" fill="currentColor"/>
  <path d="M8.5 6C7.5 7.8 7.5 9.5 8 11" stroke="white" stroke-width="1.5" stroke-linecap="round" fill="none" opacity="0.28"/>
</symbol>

<symbol id="icon-profile" viewBox="0 0 24 24">
  <!-- Person silhouette -->
  <circle cx="12" cy="8.5" r="4.5" fill="currentColor"/>
  <path d="M5 21C5 17.1 8.1 14 12 14S19 17.1 19 21" fill="currentColor" opacity="0.78"/>
  <path d="M9.5 7C9 7.8 8.5 8.6 8.5 9.5" stroke="white" stroke-width="1.4" stroke-linecap="round" fill="none" opacity="0.28"/>
</symbol>

<symbol id="icon-shop" viewBox="0 0 24 24">
  <!-- Shopping bag -->
  <path d="M4 9.5L6 4H18L20 9.5V21H4Z" fill="currentColor"/>
  <path d="M4 9.5H20" stroke="white" stroke-width="0.8" fill="none" opacity="0.3"/>
  <path d="M9 9.5V7C9 5.3 10.3 4 12 4S15 5.3 15 7V9.5" stroke="white" stroke-width="1.5" stroke-linecap="round" fill="none" opacity="0.48"/>
  <rect x="8.5" y="13.5" width="7" height="1.5" rx="0.75" fill="white" opacity="0.22"/>
</symbol>

<symbol id="icon-missions" viewBox="0 0 24 24">
  <!-- Sword (diagonal) -->
  <path d="M19.5 3.5L20.5 4.5L9 16L7.5 16.5L8 15Z" fill="currentColor"/>
  <path d="M19.5 3.5L21 5" stroke="white" stroke-width="0.8" fill="none" opacity="0.38"/>
  <!-- Crossguard -->
  <path d="M7.5 13.5L10.5 16.5" stroke="currentColor" stroke-width="2.8" stroke-linecap="round" fill="none"/>
  <!-- Handle -->
  <path d="M7.5 16.5L5 19" stroke="currentColor" stroke-width="2.2" stroke-linecap="round" fill="none"/>
  <!-- Pommel -->
  <circle cx="4" cy="20" r="1.4" fill="currentColor"/>
</symbol>

<symbol id="icon-settings" viewBox="0 0 24 24">
  <!-- 6-tooth gear via even-odd fill rule -->
  <path fill-rule="evenodd" clip-rule="evenodd"
    d="M12 2.5L15.5 5.94 20.23 7.25 19 12 20.23 16.75 15.5 18.06 12 21.5 8.5 18.06 3.77 16.75 5 12 3.77 7.25 8.5 5.94Z
    M12 15.5A3.5 3.5 0 1 0 12 8.5 3.5 3.5 0 0 0 12 15.5Z"
    fill="currentColor"/>
</symbol>

<symbol id="icon-logout" viewBox="0 0 24 24">
  <!-- Door with exit arrow -->
  <rect x="3" y="3" width="12" height="18" rx="2" fill="currentColor" opacity="0.78"/>
  <rect x="4.5" y="4.5" width="9" height="15" rx="1.5" fill="white" opacity="0.18"/>
  <circle cx="13" cy="12" r="1.2" fill="white" opacity="0.48"/>
  <!-- Arrow -->
  <path d="M14 12H22M18.5 8L22 12L18.5 16" stroke="currentColor" stroke-width="2.5" stroke-linecap="round" stroke-linejoin="round" fill="none"/>
</symbol>

<!-- ── STATUS & GAMEPLAY ────────────────────────────────────── -->

<symbol id="icon-lock" viewBox="0 0 24 24">
  <!-- Padlock -->
  <rect x="5" y="11" width="14" height="10.5" rx="2.5" fill="currentColor"/>
  <path d="M8 11V8C8 5.8 9.8 4 12 4S16 5.8 16 8V11" stroke="currentColor" stroke-width="2.5" stroke-linecap="round" fill="none"/>
  <circle cx="12" cy="16.5" r="1.5" fill="white" opacity="0.55"/>
  <line x1="12" y1="18" x2="12" y2="19.5" stroke="white" stroke-width="1.5" stroke-linecap="round" opacity="0.45"/>
</symbol>

<symbol id="icon-check" viewBox="0 0 24 24">
  <!-- Complete — filled circle + check -->
  <circle cx="12" cy="12" r="10" fill="currentColor"/>
  <path d="M7 12L10.5 15.5L17 8.5" stroke="white" stroke-width="2.2" stroke-linecap="round" stroke-linejoin="round" fill="none"/>
</symbol>

<symbol id="icon-star" viewBox="0 0 24 24">
  <!-- 5-point star -->
  <path d="M12 2L15.1 9H22L16.4 13.5L18.5 21L12 17.1L5.5 21L7.6 13.5L2 9H8.9Z" fill="currentColor"/>
  <path d="M12 2L9.5 8.5L12 9.8L14.5 8.5Z" fill="white" opacity="0.22"/>
</symbol>

<symbol id="icon-crown" viewBox="0 0 24 24">
  <!-- Crown -->
  <path d="M3 17L5 7L9.5 11.5L12 4L14.5 11.5L19 7L21 17H3Z" fill="currentColor"/>
  <rect x="3" y="17" width="18" height="3" rx="1.5" fill="currentColor" opacity="0.72"/>
  <circle cx="5"  cy="6.5" r="1.5" fill="white" opacity="0.5"/>
  <circle cx="12" cy="3.5" r="1.5" fill="white" opacity="0.5"/>
  <circle cx="19" cy="6.5" r="1.5" fill="white" opacity="0.5"/>
</symbol>

<symbol id="icon-shield" viewBox="0 0 24 24">
  <!-- Shield (generic status) -->
  <path d="M12 2L4 5.5V11C4 16 7.5 20.5 12 22C16.5 20.5 20 16 20 11V5.5Z" fill="currentColor"/>
  <path d="M5.5 6.5V11C5.5 15 7.5 18 10.5 20" stroke="white" stroke-width="1.5" stroke-linecap="round" fill="none" opacity="0.22"/>
</symbol>

<symbol id="icon-flag" viewBox="0 0 24 24">
  <!-- Checkpoint flag -->
  <line x1="5" y1="2" x2="5" y2="22" stroke="currentColor" stroke-width="2.5" stroke-linecap="round"/>
  <path d="M5 3L18 7.5L5 12Z" fill="currentColor"/>
  <path d="M5 3L18 7.5" stroke="white" stroke-width="0.8" fill="none" opacity="0.32"/>
</symbol>

<symbol id="icon-portal" viewBox="0 0 24 24">
  <!-- Portal / magic swirl -->
  <circle cx="12" cy="12" r="9"   fill="currentColor" opacity="0.18"/>
  <circle cx="12" cy="12" r="6.5" fill="currentColor" opacity="0.38"/>
  <circle cx="12" cy="12" r="4"   fill="currentColor" opacity="0.65"/>
  <circle cx="12" cy="12" r="2"   fill="currentColor"/>
  <path d="M12 4.5A7.5 7.5 0 0119.5 12" stroke="white" stroke-width="1.5" stroke-linecap="round" fill="none" opacity="0.38"/>
  <circle cx="12" cy="12" r="0.8" fill="white" opacity="0.7"/>
</symbol>

<symbol id="icon-warning" viewBox="0 0 24 24">
  <!-- Warning triangle -->
  <path d="M12 2L2 21.5H22Z" fill="currentColor"/>
  <path d="M12 9V14.5" stroke="white" stroke-width="2" stroke-linecap="round" opacity="0.82"/>
  <circle cx="12" cy="18" r="1.1" fill="white" opacity="0.82"/>
</symbol>

<symbol id="icon-premium" viewBox="0 0 24 24">
  <!-- Premium / unlock badge — crown in circle -->
  <circle cx="12" cy="12" r="9.5" fill="currentColor" opacity="0.2"/>
  <path d="M6 16L7.5 9L11 12.5L12 8L13 12.5L16.5 9L18 16H6Z" fill="currentColor"/>
  <circle cx="7.5"  cy="8.5" r="1.2" fill="currentColor" opacity="0.82"/>
  <circle cx="12"   cy="7"   r="1.2" fill="currentColor" opacity="0.82"/>
  <circle cx="16.5" cy="8.5" r="1.2" fill="currentColor" opacity="0.82"/>
</symbol>

<!-- ── ADVENTURE MAP — BOSS & FINAL ─────────────────────────── -->

<symbol id="icon-boss" viewBox="0 0 24 24">
  <!-- Skull (boss) — fixed eye colors for readability on any bg -->
  <path d="M12 3C8.1 3 5 6.1 5 10C5 13 6.5 15.5 9 17V20H15V17C17.5 15.5 19 13 19 10C19 6.1 15.9 3 12 3Z" fill="currentColor"/>
  <circle cx="9.5"  cy="10.5" r="2.2" fill="rgba(255,255,255,0.88)"/>
  <circle cx="14.5" cy="10.5" r="2.2" fill="rgba(255,255,255,0.88)"/>
  <circle cx="9.5"  cy="10.5" r="1.1" fill="rgba(0,0,0,0.45)"/>
  <circle cx="14.5" cy="10.5" r="1.1" fill="rgba(0,0,0,0.45)"/>
  <rect x="9"  y="20" width="6" height="3" rx="0.5" fill="currentColor" opacity="0.82"/>
  <line x1="11" y1="20" x2="11" y2="22.5" stroke="rgba(255,255,255,0.55)" stroke-width="1"/>
  <line x1="13" y1="20" x2="13" y2="22.5" stroke="rgba(255,255,255,0.55)" stroke-width="1"/>
</symbol>

<symbol id="icon-scroll" viewBox="0 0 24 24">
  <!-- Rolled scroll -->
  <rect x="5" y="4" width="14" height="16" rx="2" fill="currentColor" opacity="0.82"/>
  <path d="M5 6.5C5 5.1 5.9 4 7 4H17C18.1 4 19 5.1 19 6.5C19 6.5 16 7.8 12 7.8S5 6.5 5 6.5Z" fill="currentColor"/>
  <path d="M5 17.5C5 17.5 8 18.8 12 18.8S19 17.5 19 17.5C19 18.9 18.1 20 17 20H7C5.9 20 5 18.9 5 17.5Z" fill="currentColor"/>
  <line x1="8" y1="10.5" x2="16" y2="10.5" stroke="white" stroke-width="1.5" stroke-linecap="round" opacity="0.45"/>
  <line x1="8" y1="13.5" x2="16" y2="13.5" stroke="white" stroke-width="1.5" stroke-linecap="round" opacity="0.45"/>
  <line x1="8" y1="16"   x2="13" y2="16"   stroke="white" stroke-width="1.5" stroke-linecap="round" opacity="0.45"/>
</symbol>

<!-- ── RPG ──────────────────────────────────────────────────── -->

<symbol id="icon-sword" viewBox="0 0 24 24">
  <!-- Sword (diagonal top-right to bottom-left) -->
  <path d="M19.5 3.5L21 4.5L9 16.5L7.5 17L8 15.5Z" fill="currentColor"/>
  <path d="M19.5 3.5L21 5" stroke="white" stroke-width="0.8" fill="none" opacity="0.35"/>
  <path d="M7.5 14L10.5 17" stroke="currentColor" stroke-width="3" stroke-linecap="round" fill="none"/>
  <path d="M7.5 17L5 19.5" stroke="currentColor" stroke-width="2.2" stroke-linecap="round" fill="none" opacity="0.85"/>
  <circle cx="4" cy="20.5" r="1.5" fill="currentColor"/>
</symbol>

<symbol id="icon-potion" viewBox="0 0 24 24">
  <!-- Potion flask -->
  <path d="M9.5 10L5.5 16.5C4.5 18.5 5.5 21 9 21H15C18.5 21 19.5 18.5 18.5 16.5L14.5 10H9.5Z" fill="currentColor"/>
  <path d="M8 14L6 19C5.8 19.7 6.5 21 9 21H15C17.5 21 18.2 19.7 18 19L16 14H8Z" fill="white" opacity="0.22"/>
  <rect x="9.5" y="5.5" width="5" height="5" rx="1" fill="currentColor" opacity="0.88"/>
  <rect x="9.5" y="3" width="5" height="3.5" rx="1" fill="currentColor"/>
  <circle cx="10" cy="17" r="1.2" fill="white" opacity="0.32"/>
  <circle cx="13.5" cy="15" r="0.8" fill="white" opacity="0.25"/>
</symbol>

<symbol id="icon-companion" viewBox="0 0 24 24">
  <!-- Cute companion character -->
  <circle cx="12" cy="10" r="6" fill="currentColor"/>
  <path d="M8.5 5C8.5 5 7.5 2 6.5 2S5.5 4 7 5" fill="currentColor" opacity="0.75"/>
  <path d="M15.5 5C15.5 5 16.5 2 17.5 2S18.5 4 17 5" fill="currentColor" opacity="0.75"/>
  <circle cx="10.5" cy="9.5" r="1.4" fill="white" opacity="0.88"/>
  <circle cx="13.5" cy="9.5" r="1.4" fill="white" opacity="0.88"/>
  <circle cx="10.5" cy="9.5" r="0.7" fill="rgba(0,0,0,0.45)"/>
  <circle cx="13.5" cy="9.5" r="0.7" fill="rgba(0,0,0,0.45)"/>
  <path d="M10.5 12.5C11 13.5 13 13.5 13.5 12.5" stroke="white" stroke-width="1" stroke-linecap="round" fill="none" opacity="0.55"/>
  <path d="M9 16C9 16 9 20 12 21C15 20 15 16 15 16" fill="currentColor" opacity="0.68"/>
</symbol>

<!-- ── SCIENCE ──────────────────────────────────────────────── -->

<symbol id="icon-virus" viewBox="0 0 24 24">
  <!-- Pathogen — spiky starburst -->
  <path d="M12 2.5L13.2 6.2 16.5 3.8 16 7.5 20 7.5 17.5 10.5 21.5 12.5 17.5 13.5 20.5 17 16 16.8 16.5 20.5 13.2 18 12 21.5 10.8 18 7.5 20.5 8 16.8 3.5 17 4 13.5 2.5 12.5 6.5 10.5 4 7.5 8 7.5 7.5 3.8 10.8 6.2Z" fill="currentColor"/>
  <circle cx="12" cy="12" r="4" fill="white" opacity="0.18"/>
  <circle cx="12" cy="12" r="2" fill="white" opacity="0.22"/>
</symbol>

<symbol id="icon-vaccine" viewBox="0 0 24 24">
  <!-- Syringe (horizontal) -->
  <rect x="5" y="10.5" width="12" height="3.5" rx="1.5" fill="currentColor"/>
  <path d="M17 12.5H22" stroke="currentColor" stroke-width="1.5" stroke-linecap="round" fill="none"/>
  <line x1="2" y1="9.5" x2="2" y2="15.5" stroke="currentColor" stroke-width="2.5" stroke-linecap="round"/>
  <line x1="2" y1="12.5" x2="5" y2="12.5" stroke="currentColor" stroke-width="2" stroke-linecap="round"/>
  <rect x="10" y="11" width="5" height="2.5" rx="0.5" fill="white" opacity="0.35"/>
  <line x1="8"  y1="10.5" x2="8"  y2="14" stroke="white" stroke-width="0.8" opacity="0.4"/>
  <line x1="11" y1="10.5" x2="11" y2="14" stroke="white" stroke-width="0.8" opacity="0.4"/>
</symbol>

<symbol id="icon-dna" viewBox="0 0 24 24">
  <!-- Double helix -->
  <path d="M8 2.5C11 5.5 16 6.5 16 11C16 15.5 11 16.5 8 19.5C8 20.5 8 21.5 8 22.5" stroke="currentColor" stroke-width="2" stroke-linecap="round" fill="none"/>
  <path d="M16 2.5C13 5.5 8 6.5 8 11C8 15.5 13 16.5 16 19.5C16 20.5 16 21.5 16 22.5" stroke="currentColor" stroke-width="2" stroke-linecap="round" fill="none" opacity="0.52"/>
  <line x1="8.5"  y1="6.5"  x2="15.5" y2="6.5"  stroke="currentColor" stroke-width="1.5" stroke-linecap="round" opacity="0.6"/>
  <line x1="7.5"  y1="11"   x2="16.5" y2="11"   stroke="currentColor" stroke-width="1.5" stroke-linecap="round" opacity="0.6"/>
  <line x1="8.5"  y1="15.5" x2="15.5" y2="15.5" stroke="currentColor" stroke-width="1.5" stroke-linecap="round" opacity="0.6"/>
  <line x1="10.5" y1="20"   x2="13.5" y2="20"   stroke="currentColor" stroke-width="1.5" stroke-linecap="round" opacity="0.5"/>
</symbol>

<symbol id="icon-microscope" viewBox="0 0 24 24">
  <!-- Microscope -->
  <rect x="10" y="2" width="4.5" height="2.5" rx="1" fill="currentColor" opacity="0.85"/>
  <rect x="11" y="4.5" width="2.5" height="8.5" rx="1.2" fill="currentColor"/>
  <path d="M11 12.5H7.5" stroke="currentColor" stroke-width="2.5" stroke-linecap="round" fill="none"/>
  <circle cx="7.5" cy="14" r="2.2" fill="currentColor"/>
  <rect x="5.5" y="15.5" width="13" height="2" rx="1" fill="currentColor"/>
  <line x1="10" y1="17.5" x2="10" y2="22" stroke="currentColor" stroke-width="2" stroke-linecap="round"/>
  <line x1="14" y1="17.5" x2="14" y2="22" stroke="currentColor" stroke-width="2" stroke-linecap="round"/>
  <line x1="8"  y1="22"   x2="16" y2="22"  stroke="currentColor" stroke-width="2.5" stroke-linecap="round"/>
  <circle cx="16" cy="7.5" r="1.8" fill="currentColor" opacity="0.68"/>
</symbol>

<symbol id="icon-cell" viewBox="0 0 24 24">
  <!-- Cell (biology) -->
  <ellipse cx="12" cy="12" rx="9" ry="7.5" fill="currentColor" opacity="0.82"/>
  <ellipse cx="12" cy="12" rx="9" ry="7.5" stroke="white" stroke-width="0.8" fill="none" opacity="0.35"/>
  <!-- Nucleus -->
  <ellipse cx="11" cy="11" rx="3.5" ry="3" fill="white" opacity="0.55"/>
  <!-- Organelles -->
  <circle cx="16.5" cy="9"  r="0.9" fill="white" opacity="0.35"/>
  <circle cx="7"    cy="14" r="0.9" fill="white" opacity="0.35"/>
  <circle cx="15"   cy="15" r="1.1" fill="white" opacity="0.3"/>
</symbol>

<!-- ── ACHIEVEMENTS ─────────────────────────────────────────── -->

<symbol id="icon-achievement" viewBox="0 0 24 24">
  <!-- Medal with ribbon -->
  <path d="M9.5 2L8.5 3L10 8H14L15.5 3L14.5 2H9.5Z" fill="currentColor" opacity="0.72"/>
  <line x1="10" y1="2.5" x2="10" y2="9" stroke="currentColor" stroke-width="2.8" stroke-linecap="round" opacity="0.62"/>
  <line x1="14" y1="2.5" x2="14" y2="9" stroke="currentColor" stroke-width="2.8" stroke-linecap="round" opacity="0.52"/>
  <circle cx="12" cy="16" r="7" fill="currentColor"/>
  <path d="M12 10.5L13.3 13.5L16.5 14L14 16L14.8 19L12 17.4L9.2 19L10 16L7.5 14L10.7 13.5Z" fill="white" opacity="0.68"/>
</symbol>

<!-- Achievement type variants -->
<symbol id="icon-ach-mastery" viewBox="0 0 24 24">
  <circle cx="12" cy="12" r="10" fill="currentColor"/>
  <path d="M12 4L14 9H19L15 12.5L16.5 18L12 15L7.5 18L9 12.5L5 9H10Z" fill="white" opacity="0.72"/>
</symbol>

<symbol id="icon-ach-speed" viewBox="0 0 24 24">
  <circle cx="12" cy="12" r="10" fill="currentColor"/>
  <path d="M5 14L12 4L19 14H13.5L16 20L9 12H13.5L11 6L5 14Z" fill="white" opacity="0.72"/>
</symbol>

<symbol id="icon-ach-scientist" viewBox="0 0 24 24">
  <circle cx="12" cy="12" r="10" fill="currentColor"/>
  <!-- Flask inside -->
  <path d="M9.5 8V12L7 17A3 3 0 0017 17L14.5 12V8H9.5Z" fill="white" opacity="0.65"/>
  <rect x="9" y="7" width="6" height="1.5" rx="0.75" fill="white" opacity="0.45"/>
</symbol>

<symbol id="icon-ach-guardian" viewBox="0 0 24 24">
  <circle cx="12" cy="12" r="10" fill="currentColor"/>
  <path d="M12 4L5 7V12C5 16 8 19.5 12 21C16 19.5 19 16 19 12V7Z" fill="white" opacity="0.65"/>
</symbol>

<!-- ── AI TUTOR ────────────────────────────────────────────── -->

<symbol id="icon-ai-tutor" viewBox="0 0 24 24">
  <!-- Brain + neural connections + AI spark -->
  <circle cx="12" cy="12" r="6" fill="currentColor"/>
  <circle cx="12" cy="3.5"  r="1.2" fill="currentColor"/>
  <circle cx="20" cy="8"    r="1.2" fill="currentColor"/>
  <circle cx="20" cy="16"   r="1.2" fill="currentColor"/>
  <circle cx="12" cy="20.5" r="1.2" fill="currentColor"/>
  <circle cx="4"  cy="16"   r="1.2" fill="currentColor"/>
  <circle cx="4"  cy="8"    r="1.2" fill="currentColor"/>
  <line x1="12" y1="4.7"  x2="12" y2="6"  stroke="currentColor" stroke-width="1.2"/>
  <line x1="19" y1="8.7"  x2="17.5" y2="9.5" stroke="currentColor" stroke-width="1.2"/>
  <line x1="19" y1="15.3" x2="17.5" y2="14.5" stroke="currentColor" stroke-width="1.2"/>
  <line x1="12" y1="19.3" x2="12" y2="18"   stroke="currentColor" stroke-width="1.2"/>
  <line x1="5"  y1="15.3" x2="6.5" y2="14.5" stroke="currentColor" stroke-width="1.2"/>
  <line x1="5"  y1="8.7"  x2="6.5" y2="9.5"  stroke="currentColor" stroke-width="1.2"/>
  <!-- AI lightning inside brain -->
  <path d="M13 8L10 12.5H13L11.5 16L15 11H12Z" fill="white" opacity="0.72"/>
</symbol>

<!-- ── SOCIAL ─────────────────────────────────────────────── -->

<symbol id="icon-guild" viewBox="0 0 24 24">
  <!-- Guild shield with inner cross -->
  <path d="M12 2L4 5.5V11C4 16 7.5 20.5 12 22C16.5 20.5 20 16 20 11V5.5Z" fill="currentColor"/>
  <line x1="12" y1="8" x2="12" y2="16" stroke="white" stroke-width="1.5" stroke-linecap="round" opacity="0.48"/>
  <line x1="8"  y1="12" x2="16" y2="12" stroke="white" stroke-width="1.5" stroke-linecap="round" opacity="0.48"/>
  <path d="M5.5 6.5V11C5.5 14.5 7.5 17.5 10.5 19.5" stroke="white" stroke-width="1.5" stroke-linecap="round" fill="none" opacity="0.2"/>
</symbol>

<symbol id="icon-friends" viewBox="0 0 24 24">
  <!-- Two people -->
  <circle cx="15.5" cy="7.5" r="3.5" fill="currentColor" opacity="0.6"/>
  <path d="M9.5 22C9.5 18.7 12.2 16 15.5 16S21.5 18.7 21.5 22" fill="currentColor" opacity="0.6"/>
  <circle cx="9"  cy="7.5" r="3.5" fill="currentColor"/>
  <path d="M3 22C3 18.7 5.7 16 9 16S15 18.7 15 22" fill="currentColor"/>
</symbol>

<symbol id="icon-compass" viewBox="0 0 24 24">
  <!-- Navigation compass -->
  <circle cx="12" cy="12" r="9.5" fill="currentColor" opacity="0.18"/>
  <circle cx="12" cy="12" r="9.5" stroke="currentColor" stroke-width="1" fill="none"/>
  <path d="M12 4.5L14 12L12 10.5L10 12Z" fill="currentColor"/>
  <path d="M12 19.5L10 12L12 13.5L14 12Z" fill="currentColor" opacity="0.42"/>
  <circle cx="12" cy="12" r="1.8" fill="currentColor"/>
  <circle cx="12" cy="3.8"  r="0.9" fill="currentColor"/>
  <circle cx="20.2" cy="12" r="0.7" fill="currentColor" opacity="0.5"/>
  <circle cx="12" cy="20.2" r="0.7" fill="currentColor" opacity="0.5"/>
  <circle cx="3.8"  cy="12" r="0.7" fill="currentColor" opacity="0.5"/>
</symbol>

<!-- ── INVENTORY / ITEMS ────────────────────────────────────── -->

<symbol id="icon-backpack" viewBox="0 0 24 24">
  <rect x="6" y="8" width="12" height="14" rx="3" fill="currentColor"/>
  <path d="M9 8V6A3 3 0 0115 6V8" stroke="currentColor" stroke-width="2" stroke-linecap="round" fill="none"/>
  <rect x="9.5" y="12" width="5" height="1.5" rx="0.75" fill="white" opacity="0.45"/>
  <rect x="9.5" y="14.5" width="5" height="1.5" rx="0.75" fill="white" opacity="0.28"/>
</symbol>

<symbol id="icon-booster" viewBox="0 0 24 24">
  <!-- XP 2× booster star burst -->
  <circle cx="12" cy="12" r="9" fill="currentColor" opacity="0.22"/>
  <path d="M12 2L14 9H21L15.5 13.5L17.5 21L12 16.5L6.5 21L8.5 13.5L3 9H10Z" fill="currentColor"/>
  <path d="M10.5 10H13.5V11.5L11.5 14.5H13.5" stroke="white" stroke-width="1.3" stroke-linecap="round" stroke-linejoin="round" fill="none" opacity="0.7"/>
</symbol>

<symbol id="icon-chevron-up" viewBox="0 0 24 24">
  <path d="M5 15L12 7L19 15" stroke="currentColor" stroke-width="2.5" stroke-linecap="round" stroke-linejoin="round" fill="none"/>
</symbol>

<symbol id="icon-chevron-left" viewBox="0 0 24 24">
  <path d="M15 5L7 12L15 19" stroke="currentColor" stroke-width="2.5" stroke-linecap="round" stroke-linejoin="round" fill="none"/>
</symbol>

<symbol id="icon-char" viewBox="0 0 24 24">
  <!-- Game hero character on map -->
  <circle cx="12" cy="7.5" r="4" fill="currentColor"/>
  <path d="M6 22C6 18 8.7 15 12 15S18 18 18 22" fill="currentColor" opacity="0.88"/>
  <path d="M7 21C5.5 19.8 4.5 18.2 4.5 17S6 14.8 7.5 16" fill="currentColor" opacity="0.52"/>
  <path d="M17 21C18.5 19.8 19.5 18.2 19.5 17S18 14.8 16.5 16" fill="currentColor" opacity="0.52"/>
  <path d="M9.5 5.8C9 6.5 8.5 7.3 8.5 8" stroke="white" stroke-width="1.3" stroke-linecap="round" fill="none" opacity="0.28"/>
</symbol>

</defs>
</svg>